inDegrees=no
num_controls=7
num_derivatives=13
num_iterations=180
num_multipliers=7
num_parameters=0
num_slacks=7
num_states=26
objective=5.750147
objective_accelerations=0.704529
objective_balance=0.006266
objective_effort=0.498543
objective_height=4.494062
objective_ligament=0.046747
solver_duration=1564.582881
status=Solve_Succeeded
success=true
DataType=double
version=3
OpenSimVersion=4.4-2022-07-23-0e9fedc
endheader
time	/jointset/ground_pelvis/pelvis_tilt/value	/jointset/ground_pelvis/pelvis_tx/value	/jointset/ground_pelvis/pelvis_ty/value	/jointset/hip_r/hip_flexion_r/value	/jointset/hip_r/hip_adduction_r/value	/jointset/hip_r/hip_rotation_r/value	/jointset/back/lumbar_extension/value	/jointset/patellofemoral_r/patellar_flexion_r/value	/jointset/knee_r/knee_flexion_r/value	/jointset/knee_r/knee_adduction_r/value	/jointset/knee_r/knee_rotation_r/value	/jointset/ankle_r/ankle_angle_r/value	/jointset/subtalar_r/subtalar_angle_r/value	/jointset/ground_pelvis/pelvis_tilt/speed	/jointset/ground_pelvis/pelvis_tx/speed	/jointset/ground_pelvis/pelvis_ty/speed	/jointset/hip_r/hip_flexion_r/speed	/jointset/hip_r/hip_adduction_r/speed	/jointset/hip_r/hip_rotation_r/speed	/jointset/back/lumbar_extension/speed	/jointset/patellofemoral_r/patellar_flexion_r/speed	/jointset/knee_r/knee_flexion_r/speed	/jointset/knee_r/knee_adduction_r/speed	/jointset/knee_r/knee_rotation_r/speed	/jointset/ankle_r/ankle_angle_r/speed	/jointset/subtalar_r/subtalar_angle_r/speed	/forceset/tau_hip_flexion_r	/forceset/tau_hip_adduction_r	/forceset/tau_hip_rotation_r	/forceset/tau_knee_flexion_r	/forceset/tau_ankle_angle_r	/forceset/tau_subtalar_angle_r	/forceset/tau_lumbar_extension	lambda_cid13_p0	lambda_cid14_p0	lambda_cid14_p1	lambda_cid14_p2	lambda_cid14_p3	lambda_cid14_p4	lambda_cid14_p5	/jointset/ground_pelvis/pelvis_tilt/accel	/jointset/ground_pelvis/pelvis_tx/accel	/jointset/ground_pelvis/pelvis_ty/accel	/jointset/hip_r/hip_flexion_r/accel	/jointset/hip_r/hip_adduction_r/accel	/jointset/hip_r/hip_rotation_r/accel	/jointset/back/lumbar_extension/accel	/jointset/patellofemoral_r/patellar_flexion_r/accel	/jointset/knee_r/knee_flexion_r/accel	/jointset/knee_r/knee_adduction_r/accel	/jointset/knee_r/knee_rotation_r/accel	/jointset/ankle_r/ankle_angle_r/accel	/jointset/subtalar_r/subtalar_angle_r/accel	gamma_cid13_p0	gamma_cid14_p0	gamma_cid14_p1	gamma_cid14_p2	gamma_cid14_p3	gamma_cid14_p4	gamma_cid14_p5
0.5	-0.1498900218515818	0.009976653667002726	0.788955410067311	0.9643843372435094	-0.2196474950482092	-0.1265749958662917	-0.6571571910387051	1.014542164454616	1.014542164454396	-0.07650315938794006	0.1745049721372762	0.2972773919003088	0.1447696039116103	-0.3986544716140387	-0.2165952693478835	-0.5749760889477038	2.053564413778331	-0.04937938469678833	0.2285770485823922	-0.7316988564061986	2.089773543758968	2.089773543758938	-0.3985788056202233	0.002143544589442294	0.5319648063537069	0.1378654912261862	-0.2059562158899844	-0.002299007562511766	0.01826482835249865	-0.3105736118777259	0.02598194545627886	0.006220964671964324	0.2474233687448333	-5.762810652475027	-33.74173993686092	-2.629533685012911	0.1824965657920857	-7.562177188552392	-640.5709878992282	69.91623996830054	0.4832925440386336	0.722983171823694	-0.4562590096933162	-1.455692620544079	-0.1348058421067665	-0.3011687910666803	2.006818185657854	-1.45454701574524	-1.454547015745211	0.5966754459416894	-0.1585470739889071	-0.6494284700816371	-0.3446960484679824	-5.970435473843647e-08	1.559464430800139e-07	2.165752702337839e-06	7.552103067095405e-07	-2.977325764005386e-07	-1.692190033988136e-07	1.514333267528881e-06
0.51	-0.1538515066013166	0.007847010665495681	0.7831841825489774	0.9848440695845354	-0.2201484728299787	-0.124306991419004	-0.6643733034172831	1.035363874631458	1.035363874631194	-0.08045970407478302	0.1745212976627497	0.3025634591974844	0.146129805935486	-0.3935735685343719	-0.2093178251392893	-0.5791385485239826	2.038106202013808	-0.05081885047968365	0.2250049748280497	-0.7114421881146907	2.074289273932217	2.074289273932226	-0.3926809250338106	0.001173320690868142	0.5251634845652577	0.1341211344873803	-0.2128295284765748	-0.001655030892720964	0.01853571828012471	-0.3162154470204882	0.02526920338778995	0.006568321719258929	0.2538428716212503	-4.910507115204953	-34.33019991834403	-2.722192971281016	0.3577320742533339	-7.488359247881472	-646.2731705549489	70.42934705454319	0.5308494963348057	0.7323910113496813	-0.3766417166894743	-1.632238257676026	-0.1486931302603711	-0.3881485293252145	2.047305830144673	-1.637239016801049	-1.637239016795211	0.5940118606473699	-0.05827690100513688	-0.7083167403219006	-0.3969421848068719	-4.758511044071685e-08	1.682685314202344e-07	2.108564976653007e-06	8.22527417738906e-07	-3.004745056401007e-07	-1.546281335898214e-07	1.5243497506609e-06
0.52	-0.1577601102589775	0.005790595299269151	0.777375249977862	1.005140949247261	-0.2206638805063538	-0.1220752920815972	-0.6713844061770972	1.056022367699897	1.056022367699594	-0.08435573645662946	0.1745295175786094	0.3077789467353559	0.1474510370523298	-0.3880782531985361	-0.2019497422917806	-0.5825170995040422	2.020993878118504	-0.05226536361776193	0.2213160266054202	-0.690696932653286	2.057130122079023	2.05713012207907	-0.3864763446211467	0.0005224226637559372	0.517848854492992	0.1300713098197751	-0.2197028410631588	-0.001011054222915207	0.01880660820771604	-0.3218572821632569	0.02455646131930284	0.006915678766578063	0.2602623744976714	-4.129031129789779	-34.91470960708504	-2.806563718274355	0.5229695722617269	-7.45008763504636	-651.939704396556	70.96570749332679	0.5661749952724893	0.7411108996065791	-0.2994772904494937	-1.786515046700167	-0.1362153131433381	-0.3245436847240262	2.104535619637257	-1.789523421033992	-1.789523421033981	0.6580154111919297	-0.0946818996965936	-0.7520901268450345	-0.4057896342278041	-3.663573864272929e-08	1.785902717664566e-07	2.043964786452405e-06	8.621905932928237e-07	-3.023820474875892e-07	-1.416094367100528e-07	1.533916049814375e-06
0.53	-0.1616118222704319	0.003808245950418519	0.7715364597845772	1.025258697876468	-0.2211937123232901	-0.1198808849450819	-0.6781857239486629	1.076501119285981	1.076501119285523	-0.08818833389764234	0.1745325727165701	0.312918859535019	0.1487303785618043	-0.3822009566622895	-0.1945106796349012	-0.5851075196969251	2.002291793002024	-0.05369881956448416	0.2175608483169379	-0.6695043619469075	2.038357125182297	2.038357125182336	-0.379995271650343	0.0001275690697996809	0.5100604440615601	0.1257531691951787	-0.2263339593758741	-0.0006278733987239043	0.01902342093190493	-0.327740344359814	0.0239406645374771	0.007305615584434311	0.2664420734912265	-3.418381774670544	-35.46789626262561	-2.855447794830015	0.6694015162336172	-7.379174909911494	-657.630598562956	71.61764630919988	0.6080115927774413	0.7466604483401192	-0.218838419569481	-1.951636016902816	-0.1463657637630168	-0.4017586524537877	2.135956753113711	-1.960642140457954	-1.960642140459151	0.6505917483046761	-0.005804616968523568	-0.8032556585638332	-0.4509809064486382	-2.548766627110293e-08	1.88377910127093e-07	1.976860362977059e-06	9.009260889037949e-07	-3.031947656425e-07	-1.299015530824532e-07	1.543089431227969e-06
0.54	-0.1654028603945308	0.001900558528059068	0.7656757625821913	1.045181509499953	-0.2217377697053587	-0.1177241803417608	-0.6847732482217702	1.096784250039804	1.09678425003919	-0.09195463290728907	0.1745328958124324	0.3179786803989134	0.1499653077390583	-0.3759434757269718	-0.1870173569935444	-0.5868985013242854	1.982006476974316	-0.05511047664425961	0.2137755199667178	-0.6479382329615069	2.018005955626926	2.018005955626957	-0.3732166583483367	-2.39856330915638e-05	0.501830467339264	0.1211888433756586	-0.2329650776885861	-0.0002446925745343268	0.01924023365603115	-0.3336234065563787	0.02332486775564994	0.007695552402288622	0.2726217724847845	-2.777471200654696	-36.01813400634371	-2.895887388362647	0.8054324657927442	-7.344508839764794	-663.3058872798133	72.2924863597829	0.6422118750867654	0.7519628965020287	-0.1395895773450381	-2.103161228945492	-0.1318555397538721	-0.3305736970713911	2.179247275441686	-2.10515795276315	-2.105157952763153	0.7175234774323996	-0.0460221214838997	-0.8404033850179432	-0.455026673212393	-1.411975496694003e-08	1.975746271419748e-07	1.906985298431784e-06	9.386352152161868e-07	-3.027961894992396e-07	-1.196439309253384e-07	1.551828095142122e-06
0.55	-0.1691295442485838	6.799073972579615e-05	0.7598011549877967	1.064893797134003	-0.2222956567400451	-0.1156052913963379	-0.6911433539963651	1.116856149158814	1.116856149158576	-0.09565192933373709	0.1745324736982652	0.3229541080228024	0.1511536612149579	-0.3693363151892874	-0.1794946849147088	-0.5878879130815819	1.96019963669883	-0.05645043371861726	0.2100125147150671	-0.6260381498641495	1.996122356253621	1.996122356253635	-0.366208245002386	-5.240422170660831e-05	0.4931911240377067	0.1164632799192273	-0.2394070337612244	0.0001745784763082779	0.01937636616909102	-0.3395314580571044	0.02258262203849841	0.008012144235347702	0.2785769831437346	-2.205377276739971	-36.61679562519791	-2.975991678190374	0.9470230409170473	-7.185253584633829	-668.9443423899135	72.89015192448188	0.6785429199715753	0.7525862115430392	-0.05837411374867402	-2.2571276047147	-0.1323807648633577	-0.3976755023715867	2.202104640904554	-2.267686133990497	-2.26768613399287	0.6978844243053981	0.02020818155238156	-0.8853320190869185	-0.4837016226747692	-3.203932581100986e-09	2.058853737808305e-07	1.837389318950133e-06	9.729709619030892e-07	-3.016090509377374e-07	-1.104575113484641e-07	1.559896738525795e-06
0.5600000000000001	-0.1727884415418885	-0.00168931695822531	0.7539207018480636	1.084380479929725	-0.2228664063401927	-0.1135237348160616	-0.6972931157771822	1.136701667243216	1.136701667243348	-0.09927806479449831	0.1745320593798785	0.3278412157704031	0.1522942829681301	-0.3623861635771115	-0.1719653389171112	-0.5880676103919487	1.936885509308762	-0.05768298973644548	0.2063090469370271	-0.6038694342059211	1.972729748705263	1.972729748705262	-0.358984465211277	-2.242644620759109e-05	0.4841664920816562	0.1116424988301418	-0.2458489898338603	0.000593849527157834	0.01951249868207628	-0.3454395095578398	0.02184037632134799	0.008328736068419849	0.2845321938026866	-1.701391124884401	-37.21379685298525	-3.048452410068329	1.078997851339328	-7.060602082381913	-674.5864429199395	73.50821596754426	0.7108100899850692	0.7532976802544123	0.02235331204089527	-2.404618651861839	-0.1103753284480564	-0.3186662023493326	2.232973787615861	-2.4069595877736	-2.406959587773605	0.7605967664640823	-0.03434284866092047	-0.9174611159166205	-0.4740701997433278	7.169383102749458e-09	2.131329559684548e-07	1.768128241544831e-06	1.003258653039405e-06	-2.994756374743452e-07	-1.025565348678785e-07	1.567161357272895e-06
0.5700000000000001	-0.1763762451289125	-0.003371370835489235	0.7480424881578993	1.103626711769512	-0.223448843762379	-0.1114788150108469	-0.7032199654795521	1.156305890720387	1.156305890720392	-0.1028310533892129	0.1745319598088592	0.3326362629017561	0.1533864172902258	-0.3551239894590229	-0.1644506672369164	-0.5874398827691655	1.912121063764063	-0.05878169563917091	0.2026915236324143	-0.5814739055528604	1.947876213942258	1.947876213942259	-0.3515832771305304	-2.434947033115717e-06	0.4747884763127982	0.1067800294502735	-0.2520240451961204	0.0009956630089994493	0.01956715781421146	-0.3513664030609291	0.02104742467886279	0.00859231092761068	0.2901952554258135	-1.265024612137819	-37.82668221727376	-3.145704898701538	1.213764481608234	-6.839999585601612	-680.1005662733098	74.06930518148295	0.7415353467770586	0.7497076528900913	0.1032496006951821	-2.548294937048383	-0.1059952557675084	-0.3808315555399517	2.246832511455017	-2.560362946022233	-2.560362946022015	0.7345727090275975	0.0196964997193081	-0.9561753749352702	-0.4925953679370868	1.669775014949572e-08	2.189614275460909e-07	1.699161014653344e-06	1.026850433064632e-06	-2.963348912046884e-07	-9.55952399510674e-08	1.571721924148178e-06
